<?xml version="1.0" standalone="no"?>
<!DOCTYPE svg PUBLIC "-//W3C//DTD SVG 20010904//EN"
 "http://www.w3.org/TR/2001/REC-SVG-20010904/DTD/svg10.dtd">
<svg version="1.0" xmlns="http://www.w3.org/2000/svg"
 width="1280.000000pt" height="1280.000000pt" viewBox="0 0 1280.000000 1280.000000"
 preserveAspectRatio="xMidYMid meet">
<metadata>
Created by potrace 1.15, written by Peter Selinger 2001-2017
</metadata>
<g transform="translate(0.000000,1280.000000) scale(0.100000,-0.100000)"
fill="#000000" stroke="none">
<path d="M5865 12790 c-438 -25 -772 -95 -1560 -327 -269 -79 -335 -106 -690
-287 -628 -321 -796 -428 -1230 -785 -482 -397 -663 -583 -1117 -1149 -217
-271 -398 -562 -583 -937 -170 -343 -274 -599 -384 -937 -164 -505 -239 -880
-283 -1423 -19 -238 -16 -919 6 -1160 45 -499 101 -801 222 -1190 30 -99 82
-270 114 -381 70 -241 89 -292 193 -499 126 -253 284 -526 478 -826 289 -447
458 -657 804 -1005 326 -327 647 -599 985 -835 213 -149 857 -507 1042 -579
425 -165 1088 -363 1323 -395 61 -8 142 -24 180 -35 42 -12 126 -24 210 -30
452 -31 1837 17 2146 75 397 74 1100 306 1434 473 304 151 741 402 916 524
374 262 912 756 1233 1133 653 764 1103 1638 1345 2610 46 184 95 432 111 555
61 486 45 1839 -26 2230 -57 315 -292 1062 -443 1409 -52 120 -358 673 -446
808 -236 358 -628 847 -921 1149 -78 80 -291 262 -758 647 -76 63 -162 124
-206 147 -41 21 -154 83 -251 138 -485 276 -832 439 -1165 546 -670 216 -794
247 -1154 290 -365 45 -1143 68 -1525 46z m178 -567 l79 -18 -5 -1050 c-5
-1026 -8 -1142 -37 -1231 -7 -21 -19 -34 -36 -38 -53 -14 -469 -35 -884 -46
-448 -12 -1613 -9 -1662 5 -23 6 -28 13 -28 39 0 72 147 374 308 636 227 367
403 592 676 865 271 270 567 497 812 622 193 100 448 204 549 226 49 11 156 6
228 -10z m911 2 c80 -21 160 -54 368 -151 379 -176 631 -356 959 -683 243
-244 379 -414 569 -711 220 -344 410 -703 410 -775 0 -13 -7 -26 -16 -29 -50
-19 -516 -30 -1339 -30 -1040 0 -1215 9 -1245 64 -31 58 -38 424 -20 1100 21
795 37 1078 64 1159 23 68 121 89 250 56z m2136 -572 c365 -194 482 -261 621
-353 427 -287 1035 -861 1335 -1263 74 -98 95 -140 78 -157 -5 -5 -82 -14
-172 -21 -184 -13 -928 -7 -977 8 -53 16 -147 159 -360 548 -200 365 -362 618
-569 888 -258 337 -369 508 -351 538 8 13 90 -26 395 -188z m-5144 63 c12 -32
-74 -169 -269 -431 -214 -285 -416 -602 -569 -889 -206 -387 -291 -527 -335
-550 -137 -70 -993 -66 -1080 5 -19 16 -10 51 29 112 160 251 776 867 1154
1154 267 203 794 517 989 590 72 26 74 27 81 9z m7551 -2399 c157 -85 489
-877 667 -1592 73 -294 131 -679 124 -826 -4 -101 -23 -123 -123 -144 -126
-26 -446 -38 -875 -32 -491 7 -687 25 -724 66 -38 43 -64 214 -91 601 -22 310
-42 486 -71 615 -14 61 -54 254 -90 430 -75 373 -100 469 -160 625 -54 137
-57 196 -13 217 33 16 243 41 439 52 80 5 312 8 515 7 333 -1 373 -3 402 -19z
m-9169 -17 c295 -16 327 -37 268 -178 -65 -158 -146 -501 -230 -977 -71 -403
-108 -682 -131 -989 -16 -202 -36 -329 -60 -377 -17 -32 -67 -57 -138 -69 -89
-15 -727 -32 -1032 -28 -435 7 -435 7 -443 267 -7 218 23 519 70 711 20 82
176 582 240 765 120 351 259 635 374 772 64 75 118 93 309 102 223 12 577 12
773 1z m3482 -11 c156 -9 234 -19 248 -34 15 -15 21 -183 22 -655 0 -563 -19
-1841 -29 -1852 -3 -4 -663 -10 -1466 -14 -1778 -8 -1832 -6 -1837 78 -10 199
38 670 117 1156 101 618 271 1212 368 1289 21 17 48 22 129 28 311 23 2078 26
2448 4z m3751 -84 c124 -321 217 -692 305 -1220 70 -418 106 -757 106 -990 0
-172 -7 -210 -45 -224 -88 -34 -624 -51 -1552 -52 -1114 0 -1702 24 -1749 71
-16 16 -20 914 -7 1600 6 311 11 637 12 725 0 88 2 162 4 165 2 3 654 5 1449
5 l1446 0 31 -80z m2484 -2985 c77 -6 161 -15 187 -21 41 -9 48 -15 59 -46 16
-49 13 -251 -6 -413 -59 -508 -222 -1152 -412 -1635 -138 -349 -316 -622 -429
-655 -72 -21 -296 -29 -800 -30 -275 0 -503 2 -505 4 -2 2 -1 62 2 133 6 117
11 139 53 263 121 358 232 1000 301 1740 45 486 65 584 125 615 32 17 177 34
375 44 223 12 890 12 1050 1z m-10084 -50 c135 -10 184 -27 200 -67 19 -50 47
-246 64 -438 21 -253 39 -406 81 -670 89 -569 194 -1072 281 -1340 41 -128 53
-215 31 -232 -31 -26 -155 -35 -568 -40 -563 -7 -640 3 -743 97 -119 109 -344
575 -481 996 -248 766 -360 1557 -233 1662 48 40 976 62 1368 32z m7934 2 c57
-7 61 -9 80 -47 18 -36 20 -59 19 -220 -4 -565 -216 -1755 -398 -2234 -20 -51
-57 -129 -83 -172 l-48 -79 -1426 0 -1426 0 -16 78 c-9 42 -18 154 -21 247
-14 420 41 2314 69 2388 9 21 29 25 185 32 421 22 2899 27 3065 7z m-3999 -8
l162 -6 7 -947 c10 -1273 0 -1648 -47 -1767 l-24 -59 -1175 1 c-1305 1 -1515
7 -1556 46 -198 184 -511 1716 -517 2528 -1 180 2 185 116 195 202 19 2586 25
3034 9z m2734 -3284 c423 -16 584 -33 596 -64 9 -23 -43 -159 -110 -294 -192
-382 -473 -767 -810 -1111 -480 -488 -880 -733 -1381 -846 -145 -33 -295 -39
-320 -14 -30 29 -37 293 -32 1084 7 867 21 1159 57 1195 22 22 173 39 450 49
310 12 1250 12 1550 1z m2225 0 c172 -11 233 -23 242 -46 8 -21 -39 -110 -102
-189 -138 -175 -519 -552 -807 -798 -323 -276 -503 -405 -798 -570 -113 -63
-259 -147 -324 -186 -218 -132 -357 -189 -391 -161 -18 15 -6 34 263 385 181
236 410 570 532 774 34 57 129 229 211 382 168 315 191 354 218 368 73 40 615
62 956 41z m-4866 -24 c11 -10 25 -35 31 -55 25 -89 21 -1326 -6 -2043 l-6
-166 -122 -7 c-78 -5 -149 -3 -196 4 -302 47 -735 311 -1140 697 -371 352
-617 668 -850 1089 -85 154 -147 251 -173 273 -20 17 -41 95 -33 125 14 57
114 66 746 67 524 0 1274 16 1435 29 55 5 143 8 196 7 80 -1 101 -4 118 -20z
m-3221 -40 c59 -19 126 -75 173 -142 16 -23 86 -149 155 -281 211 -396 329
-579 660 -1019 197 -262 227 -312 187 -315 -62 -4 -132 20 -297 103 -292 146
-631 365 -866 561 -338 281 -950 901 -1016 1029 -13 25 -13 29 5 47 11 11 40
22 68 26 26 3 55 8 63 10 8 2 195 2 415 1 351 -2 407 -4 453 -20z"/>
</g>
</svg>
